<mxfile host="app.diagrams.net" modified="2023-10-12T02:11:25.024Z" agent="Mozilla/5.0 (Windows NT 10.0; Win64; x64) AppleWebKit/537.36 (KHTML, like Gecko) Chrome/117.0.0.0 Safari/537.36" version="22.0.4" etag="GyA0ML_2eOybGPAqxgsk" type="github">
  <diagram name="Page-1" id="9Oqlb_Ji4ammWsIbDEy-">
    <mxGraphModel>
      <root>
        <mxCell id="0" />
        <mxCell id="1" parent="0" />
      </root>
    </mxGraphModel>
  </diagram>
</mxfile>
